# ProBuilder 4.0.5
# https://unity3d.com/unity/features/worldbuilding/probuilder
# 1/06/2019 2:02:50 PM

mtllib ./bathroom.mtl
o bathroom

g Cube
v 35.65356 0 2.52297
v 26.36 0 2.52297
v 35.65356 5.765764 2.52297
v 26.36 5.765764 2.52297
v 26.36 0 -0.8591576
v 26.36 0 -5.62659
v 26.36 5.765764 -0.8591576
v 26.36 5.765764 -5.62659
v 35.65356 0 -5.62659
v 35.65356 5.765764 -5.62659
v 35.65356 0 -0.6640115
v 35.65356 5.765764 -0.6640115

vt -0.2935562 -1
vt 9 -1
vt -0.2935562 4.765764
vt 9 4.765764
vt 3.689157 -1
vt 8.45659 -1
vt 3.689157 4.765764
vt 8.45659 4.765764
vt -9 -1
vt 0.2935562 -1
vt -9 4.765764
vt 0.2935562 4.765764
vt -8.45659 -1
vt -3.494011 -1
vt -8.45659 4.765764
vt -3.494011 4.765764
vt 0.2935562 -3.494011
vt -9 -3.689157
vt 0.2935562 -8.45659
vt -9 -8.45659
vt -0.2935562 -8.45659
vt 9 -8.45659
vt -0.2935562 -3.494011
vt 9 -3.689157
vt 0.2935562 -0.3070297
vt -9 -0.3070297
vt 0.3070297 4.765764
vt 0.3070297 -1
vt 9 -0.3070297
vt -0.2935562 -0.3070297

vn 0 0 -1
vn 1 0 0
vn 0 0 1
vn -1 0 0
vn 0 -1 0
vn 0 1 0

g Cube
usemtl tiled_wall
f 1/1/1 2/2/1 4/4/1 3/3/1
f 5/5/2 6/6/2 8/8/2 7/7/2
f 6/9/3 9/10/3 10/12/3 8/11/3
f 9/13/4 11/14/4 12/16/4 10/15/4
f 12/17/5 7/18/5 8/20/5 10/19/5
f 9/21/6 6/22/6 5/24/6 11/23/6
f 3/25/5 4/26/5 7/18/5 12/17/5
f 4/27/2 2/28/2 5/5/2 7/7/2
f 2/29/6 1/30/6 11/23/6 5/24/6

