# ProBuilder 4.0.5
# https://unity3d.com/unity/features/worldbuilding/probuilder
# 30/05/2019 8:15:15 PM

mtllib ./hall.mtl
o hall

g Cube (1)
v 29.71341 0.009547234 3.198471
v 15.82115 0.009547234 3.198471
v 29.71341 5.84867 3.198471
v 15.82115 5.84867 3.198471
v -4.149637 0.03357124 3.198471
v -4.149637 0.03357124 9.489402
v -4.149637 5.84867 3.198471
v -4.149637 5.84867 9.489402
v 15.82115 0.009547234 9.489402
v 29.71341 0.009547234 9.489402
v 15.82115 5.84867 9.489402
v 29.71341 5.84867 9.489402
v 13.07996 5.84867 3.198471
v 13.07996 5.84867 9.489402
v 13.07996 0.009547234 9.489402
v 13.07996 0.009547234 3.198471
v 11.32273 5.84867 3.198471
v 11.32273 5.84867 9.489402
v 11.32273 0.009547234 9.489402
v 11.32273 0.009547234 3.198471
v 8.107172 5.84867 3.198471
v 8.107172 5.84867 9.489402
v 8.107172 0.009547234 9.489402
v 8.107172 0.009547234 3.198471
v 5.091985 5.84867 3.198471
v 5.091985 5.84867 9.489402
v 5.091985 0.009547234 9.489402
v 5.091985 0.009547234 3.198471
v 2.121615 5.84867 3.198471
v 2.121615 5.84867 9.489402
v 2.121615 0.009547234 9.489402
v 2.121615 0.009547234 3.198471
v -1.292557 5.84867 3.198471
v -1.292557 5.84867 9.489402
v -1.292557 0.03357124 9.489402
v -1.292557 0.03357124 3.198471
v 32.31017 0.009617805 9.489331
v 32.31017 0.009617805 3.198541
v 32.31017 5.848599 3.198541
v 32.31017 5.848599 9.489331
v 35.6772 5.848529 9.489261
v 35.6772 0.009688377 9.489261
v 35.6772 0.009688377 3.198612
v 35.6772 5.848529 3.198612
v 41.49421 5.848458 9.48919
v 41.49421 0.009758949 9.48919
v 41.49421 0.009758949 3.198683
v 41.49421 5.848458 3.198683

vt 32.72341 -2.200453
vt 18.83115 -2.200453
vt 32.72341 3.63867
vt 18.83115 3.63867
vt -0.05847073 -2.176429
vt -6.349402 -2.176429
vt -0.05847073 3.63867
vt -6.349402 3.63867
vt -18.83115 -2.200453
vt -32.72341 -2.200453
vt -18.83115 3.63867
vt -32.72341 3.63867
vt 32.72341 0.05847073
vt 18.83115 0.05847073
vt 32.72341 6.349402
vt 18.83115 6.349402
vt -32.72341 6.349402
vt -18.83115 6.349402
vt -32.72341 0.05847073
vt -18.83115 0.05847073
vt 16.08996 0.05847073
vt 16.08996 6.349402
vt -16.08996 6.349402
vt -16.08996 0.05847073
vt 14.33273 0.05847073
vt 14.33273 6.349402
vt -16.08996 3.63867
vt -16.08996 -2.200453
vt -14.33273 3.63867
vt -14.33273 -2.200453
vt -14.33273 6.349402
vt -14.33273 0.05847073
vt 11.11717 0.05847073
vt 11.11717 6.349402
vt -11.11717 3.63867
vt -11.11717 -2.200453
vt -11.11717 6.349402
vt -11.11717 0.05847073
vt 14.33273 -2.200453
vt 14.33273 3.63867
vt 11.11717 -2.200453
vt 11.11717 3.63867
vt 8.101985 0.05847073
vt 8.101985 6.349402
vt -8.101985 3.63867
vt -8.101985 -2.200453
vt -8.101985 6.349402
vt -8.101985 0.05847073
vt 5.131615 0.05847073
vt 5.131615 6.349402
vt -5.131615 3.63867
vt -5.131615 -2.200453
vt -5.131615 6.349402
vt -5.131615 0.05847073
vt 8.101985 -2.200453
vt 8.101985 3.63867
vt 5.131615 -2.200453
vt 5.131615 3.63867
vt 1.717443 0.05847073
vt 1.717443 6.349402
vt -5.146971 6.349402
vt -5.146971 0.05847073
vt -1.732715 6.349402
vt -1.732715 0.05847073
vt -1.139637 0.05847073
vt -1.139637 6.349402
vt -1.717443 3.63867
vt -1.717443 -2.176429
vt 1.139637 3.63867
vt 1.139637 -2.176429
vt -1.717443 6.349402
vt -1.717443 0.05847073
vt 1.139637 6.349402
vt 1.139637 0.05847073
vt 1.717443 -2.176429
vt 1.717443 3.63867
vt -1.139637 -2.176429
vt -1.139637 3.63867
vt -35.3201 6.349331
vt -35.3201 0.0585413
vt 35.32006 0.0585413
vt 35.32006 6.349331
vt 35.32016 -2.200382
vt 35.32016 3.638599
vt -35.32003 3.638599
vt -35.32003 -2.200382
vt -38.68707 3.638529
vt -38.68707 -2.200312
vt -38.68715 6.349261
vt -38.68715 0.05861187
vt 38.68712 0.05861187
vt 38.68712 6.349261
vt 38.6872 -2.200312
vt 38.6872 3.638529
vt -44.50413 3.638458
vt -44.50413 -2.200241
vt -44.50418 6.34919
vt -44.50418 0.05868244
vt 44.50416 0.05868244
vt 44.50416 6.34919
vt 6.34919 3.638458
vt 6.34919 -2.200241
vt 0.05868244 -2.200241
vt 0.05868244 3.638458

vn 0 0 1
vn 1 0 0
vn 0 0 -1
vn 0 -1 0
vn 0 1 0
vn 0.007036382 0.9999753 0
vn -1 0 0

g Cube (1)
usemtl ProBuilderDefault
f 3/3/1 4/4/1 2/2/1 1/1/1
f 7/7/2 8/8/2 6/6/2 5/5/2
f 11/11/3 12/12/3 10/10/3 9/9/3
f 12/15/4 11/16/4 4/14/4 3/13/4
f 1/19/5 2/20/5 9/18/5 10/17/5
f 4/14/4 11/16/4 14/22/4 13/21/4
f 9/18/5 2/20/5 16/24/5 15/23/5
f 13/21/4 14/22/4 18/26/4 17/25/4
f 14/27/3 15/28/3 19/30/3 18/29/3
f 15/23/5 16/24/5 20/32/5 19/31/5
f 17/25/4 18/26/4 22/34/4 21/33/4
f 18/29/3 19/30/3 23/36/3 22/35/3
f 19/31/5 20/32/5 24/38/5 23/37/5
f 20/39/1 17/40/1 21/42/1 24/41/1
f 21/33/4 22/34/4 26/44/4 25/43/4
f 22/35/3 23/36/3 27/46/3 26/45/3
f 23/37/5 24/38/5 28/48/5 27/47/5
f 25/43/4 26/44/4 30/50/4 29/49/4
f 26/45/3 27/46/3 31/52/3 30/51/3
f 27/47/5 28/48/5 32/54/5 31/53/5
f 28/55/1 25/56/1 29/58/1 32/57/1
f 29/49/4 30/50/4 34/60/4 33/59/4
f 31/61/6 32/62/6 36/64/6 35/63/6
f 33/59/4 34/60/4 8/66/4 7/65/4
f 34/67/3 35/68/3 6/70/3 8/69/3
f 35/71/5 36/72/5 5/74/5 6/73/5
f 36/75/1 33/76/1 7/78/1 5/77/1
f 10/17/5 37/79/5 38/80/5 1/19/5
f 3/13/4 39/81/4 40/82/4 12/15/4
f 1/1/1 38/83/1 39/84/1 3/3/1
f 40/85/3 41/87/3 42/88/3 37/86/3
f 37/79/5 42/89/5 43/90/5 38/80/5
f 39/81/4 44/91/4 41/92/4 40/82/4
f 38/83/1 43/93/1 44/94/1 39/84/1
f 41/87/3 45/95/3 46/96/3 42/88/3
f 42/89/5 46/97/5 47/98/5 43/90/5
f 44/91/4 48/99/4 45/100/4 41/92/4
f 46/102/7 45/101/7 48/104/7 47/103/7
f 9/9/3 15/28/3 14/27/3 11/11/3

