# ProBuilder 4.0.5
# https://unity3d.com/unity/features/worldbuilding/probuilder
# 30/05/2019 8:15:33 PM

mtllib ./hall2.mtl
o hall2

g Cube
v 29.71341 0.009547234 -6.158471
v 15.82115 0.009547234 -6.158471
v 29.71341 5.84867 -6.158471
v 15.82115 5.84867 -6.158471
v -4.149637 0.03357124 -6.158471
v -4.149637 0.03357124 -12.4494
v -4.149637 5.84867 -6.158471
v -4.149637 5.84867 -12.4494
v 15.82115 0.009547234 -12.4494
v 29.71341 0.009547234 -12.4494
v 15.82115 5.84867 -12.4494
v 29.71341 5.84867 -12.4494
v 13.07996 5.84867 -6.158471
v 13.07996 5.84867 -12.4494
v 13.07996 0.009547234 -12.4494
v 13.07996 0.009547234 -6.158471
v 11.32273 5.84867 -6.158471
v 11.32273 5.84867 -12.4494
v 11.32273 0.009547234 -12.4494
v 11.32273 0.009547234 -6.158471
v 8.107172 5.84867 -6.158471
v 8.107172 5.84867 -12.4494
v 8.107172 0.009547234 -12.4494
v 8.107172 0.009547234 -6.158471
v 5.091985 5.84867 -6.158471
v 5.091985 5.84867 -12.4494
v 5.091985 0.009547234 -12.4494
v 5.091985 0.009547234 -6.158471
v 2.121615 5.84867 -6.158471
v 2.121615 5.84867 -12.4494
v 2.121615 0.009547234 -12.4494
v 2.121615 0.009547234 -6.158471
v -1.292557 5.84867 -6.158471
v -1.292557 5.84867 -12.4494
v -1.292557 0.03357124 -12.4494
v -1.292557 0.03357124 -6.158471
v 32.31017 0.009617805 -12.44933
v 32.31017 0.009617805 -6.158541
v 32.31017 5.848599 -6.158541
v 32.31017 5.848599 -12.44933
v 35.6772 5.848529 -12.44926
v 35.6772 0.009688377 -12.44926
v 35.6772 0.009688377 -6.158612
v 35.6772 5.848529 -6.158612
v 41.49421 5.848458 -12.44919
v 41.49421 0.009758949 -12.44919
v 41.49421 0.009758949 -6.158682
v 41.49421 5.848458 -6.158682
v 13.07996 5.84857 -3.756922
v 15.82115 5.848599 -3.756993
v 15.82115 0.009618044 -3.756993
v 11.32273 5.848599 -3.756993
v 11.32273 0.009618044 -3.756993
v 13.07996 0.009647131 -3.756922
v 13.07996 5.84847 0.5361199
v 15.82108 5.848529 0.5360494
v 11.3228 5.848529 0.5360494
v 11.3228 0.009688854 0.5360494
v 15.82108 0.009688854 0.5360494
v 13.07996 0.009747028 0.5361199
v 13.07996 5.84837 3.314158
v 15.82101 5.848458 3.314087
v 15.82101 0.009759665 3.314087
v 11.32288 5.848458 3.314087
v 11.32288 0.009759665 3.314087
v 13.07996 0.009846926 3.314158
v 35.6772 0.009759188 -0.7024264
v 35.6772 5.848458 -0.7024264
v 41.49413 0.00982976 -0.7024264
v 41.49413 5.848388 -0.7024264
v 35.67727 5.848388 2.571528
v 41.49406 5.848317 2.571528
v 41.49406 0.00990057 2.571528
v 35.67727 0.009829998 2.571528
v 35.67735 5.848317 3.422451
v 41.49399 5.848247 3.422451
v 41.49399 0.00997138 3.422451
v 35.67735 0.009900808 3.422451

vt -32.72341 -2.200453
vt -18.83115 -2.200453
vt -32.72341 3.63867
vt -18.83115 3.63867
vt 0.05847073 -2.176429
vt 6.349402 -2.176429
vt 0.05847073 3.63867
vt 6.349402 3.63867
vt 18.83115 -2.200453
vt 32.72341 -2.200453
vt 18.83115 3.63867
vt 32.72341 3.63867
vt 32.72341 -0.05847073
vt 18.83115 -0.05847073
vt 32.72341 -6.349402
vt 18.83115 -6.349402
vt -32.72341 -6.349402
vt -18.83115 -6.349402
vt -32.72341 -0.05847073
vt -18.83115 -0.05847073
vt 16.08996 -0.05847073
vt 16.08996 -6.349402
vt -16.08996 -6.349402
vt -16.08996 -0.05847073
vt 14.33273 -0.05847073
vt 14.33273 -6.349402
vt 16.08996 3.63867
vt 16.08996 -2.200453
vt 14.33273 3.63867
vt 14.33273 -2.200453
vt -14.33273 -6.349402
vt -14.33273 -0.05847073
vt 11.11717 -0.05847073
vt 11.11717 -6.349402
vt 11.11717 3.63867
vt 11.11717 -2.200453
vt -11.11717 -6.349402
vt -11.11717 -0.05847073
vt -14.33273 -2.200453
vt -14.33273 3.63867
vt -11.11717 -2.200453
vt -11.11717 3.63867
vt 8.101985 -0.05847073
vt 8.101985 -6.349402
vt 8.101985 3.63867
vt 8.101985 -2.200453
vt -8.101985 -6.349402
vt -8.101985 -0.05847073
vt 5.131615 -0.05847073
vt 5.131615 -6.349402
vt 5.131615 3.63867
vt 5.131615 -2.200453
vt -5.131615 -6.349402
vt -5.131615 -0.05847073
vt -8.101985 -2.200453
vt -8.101985 3.63867
vt -5.131615 -2.200453
vt -5.131615 3.63867
vt 1.717443 -0.05847073
vt 1.717443 -6.349402
vt 1.717443 3.63867
vt 1.717443 -2.176429
vt -5.146971 -6.349402
vt -5.146971 -0.05847073
vt -1.732715 -6.349402
vt -1.732715 -0.05847073
vt -1.139637 -0.05847073
vt -1.139637 -6.349402
vt -1.139637 3.63867
vt -1.139637 -2.176429
vt -1.717443 -6.349402
vt -1.717443 -0.05847073
vt 1.139637 -6.349402
vt 1.139637 -0.05847073
vt -1.717443 -2.176429
vt -1.717443 3.63867
vt 1.139637 -2.176429
vt 1.139637 3.63867
vt -35.3201 -6.349331
vt -35.3201 -0.0585413
vt 35.32006 -0.0585413
vt 35.32006 -6.349331
vt -35.32016 -2.200382
vt -35.32016 3.638599
vt 35.32003 3.638599
vt 35.32003 -2.200382
vt 38.68707 3.638529
vt 38.68707 -2.200312
vt -38.68715 -6.349261
vt -38.68715 -0.05861187
vt 38.68712 -0.05861187
vt 38.68712 -6.349261
vt -38.6872 -2.200312
vt -38.6872 3.638529
vt 44.50413 3.638458
vt 44.50413 -2.200241
vt -44.50418 -6.34919
vt -44.50418 -0.05868244
vt 44.50416 -0.05868244
vt 44.50416 -6.34919
vt -6.34919 3.638458
vt -6.34919 -2.200241
vt -0.05868244 -2.200241
vt -0.05868244 3.638458
vt 16.08996 -0.05862245
vt 18.83115 -0.05862245
vt 16.08996 2.342926
vt 18.83115 2.342855
vt -0.05847073 3.63867
vt -0.05847073 -2.200453
vt 2.343007 3.638599
vt 2.343007 -2.200382
vt 14.33273 -0.05857766
vt 14.33273 2.3429
vt 0.05847073 -2.200453
vt -2.343007 -2.200382
vt -2.343007 3.638599
vt -18.83115 -0.05853561
vt -16.08996 -0.05853561
vt -18.83115 2.342942
vt -16.08996 2.343013
vt -14.33273 -0.05856226
vt -16.08996 2.342986
vt -14.33273 2.342916
vt 16.09 6.636035
vt 18.83112 6.635964
vt 16.0899 2.343018
vt 14.33274 6.63599
vt -6.636285 -2.200311
vt -6.636285 3.638529
vt -18.8311 6.636013
vt -16.08998 6.636084
vt -14.33277 6.635998
vt 16.09004 6.635989
vt 16.09004 9.414026
vt 18.83109 9.413956
vt 6.635571 3.638529
vt 6.635571 -2.200311
vt 9.413609 3.638458
vt 9.413609 -2.20024
vt 14.33275 9.413995
vt 16.08984 9.414065
vt -9.414452 -2.20024
vt -9.414452 3.638458
vt -18.83113 6.635993
vt -16.09 6.636064
vt -18.83106 9.414031
vt -16.09 9.414102
vt -16.08989 9.414079
vt -14.3328 9.414008
vt 0.05861187 -2.200312
vt 0.05861187 3.638529
vt -5.397573 -2.200241
vt -5.397573 3.638458
vt -44.5041 5.397545
vt -38.68717 5.397545
vt -0.05927362 3.638458
vt -0.05927362 -2.200241
vt 5.396982 3.638388
vt 5.396982 -2.20017
vt 38.68715 5.397526
vt 44.50409 5.397526
vt 38.68715 5.397495
vt 44.50409 5.397495
vt 38.68723 8.67145
vt 44.50401 8.67145
vt 8.670543 3.638317
vt 8.670543 -2.200099
vt -44.50403 8.67148
vt -38.68724 8.67148
vt 38.6873 9.52215
vt 44.50394 9.52215
vt 8.667737 3.638317
vt 8.667737 -2.200099
vt 9.518661 3.638247
vt 9.518661 -2.200029
vt -8.674823 -2.20017
vt -8.674823 3.638388
vt -9.525746 -2.200099
vt -9.525746 3.638317
vt -44.50396 9.522268
vt -38.68732 9.522268

vn 0 0 -1
vn 1 0 0
vn 0 0 1
vn 0 -1 0
vn 0 1 0
vn 0.007036382 0.9999753 0
vn -1 0 0

g Cube
usemtl ProBuilderDefault
f 1/1/1 2/2/1 4/4/1 3/3/1
f 5/5/2 6/6/2 8/8/2 7/7/2
f 9/9/3 10/10/3 12/12/3 11/11/3
f 3/13/4 4/14/4 11/16/4 12/15/4
f 10/17/5 9/18/5 2/20/5 1/19/5
f 13/21/4 14/22/4 11/16/4 4/14/4
f 15/23/5 16/24/5 2/20/5 9/18/5
f 17/25/4 18/26/4 14/22/4 13/21/4
f 18/29/3 19/30/3 15/28/3 14/27/3
f 19/31/5 20/32/5 16/24/5 15/23/5
f 21/33/4 22/34/4 18/26/4 17/25/4
f 22/35/3 23/36/3 19/30/3 18/29/3
f 23/37/5 24/38/5 20/32/5 19/31/5
f 24/41/1 21/42/1 17/40/1 20/39/1
f 25/43/4 26/44/4 22/34/4 21/33/4
f 26/45/3 27/46/3 23/36/3 22/35/3
f 27/47/5 28/48/5 24/38/5 23/37/5
f 29/49/4 30/50/4 26/44/4 25/43/4
f 30/51/3 31/52/3 27/46/3 26/45/3
f 31/53/5 32/54/5 28/48/5 27/47/5
f 32/57/1 29/58/1 25/56/1 28/55/1
f 33/59/4 34/60/4 30/50/4 29/49/4
f 34/61/3 35/62/3 31/52/3 30/51/3
f 35/65/6 36/66/6 32/64/6 31/63/6
f 7/67/4 8/68/4 34/60/4 33/59/4
f 8/69/3 6/70/3 35/62/3 34/61/3
f 6/73/5 5/74/5 36/72/5 35/71/5
f 5/77/1 7/78/1 33/76/1 36/75/1
f 38/80/5 37/79/5 10/17/5 1/19/5
f 40/82/4 39/81/4 3/13/4 12/15/4
f 39/84/1 38/83/1 1/1/1 3/3/1
f 42/88/3 41/87/3 40/85/3 37/86/3
f 43/90/5 42/89/5 37/79/5 38/80/5
f 41/92/4 44/91/4 39/81/4 40/82/4
f 44/94/1 43/93/1 38/83/1 39/84/1
f 46/96/3 45/95/3 41/87/3 42/88/3
f 47/98/5 46/97/5 42/89/5 43/90/5
f 45/100/4 48/99/4 44/91/4 41/92/4
f 48/104/7 45/101/7 46/102/7 47/103/7
f 50/108/4 49/107/4 13/105/4 4/106/4
f 51/112/7 50/111/7 4/109/7 2/110/7
f 49/107/4 52/114/4 17/113/4 13/105/4
f 52/117/2 53/116/2 20/115/2 17/7/2
f 54/121/5 51/120/5 2/118/5 16/119/5
f 53/124/5 54/123/5 16/119/5 20/122/5
f 56/126/4 55/125/4 49/107/4 50/108/4
f 55/125/4 57/128/4 52/114/4 49/127/4
f 57/130/2 58/129/2 53/116/2 52/117/2
f 60/132/5 59/131/5 51/120/5 54/121/5
f 58/133/5 60/132/5 54/121/5 53/124/5
f 62/136/4 61/135/4 55/134/4 56/126/4
f 63/140/7 62/139/7 56/137/7 59/138/7
f 61/142/4 64/141/4 57/128/4 55/125/4
f 64/144/2 65/143/2 58/129/2 57/130/2
f 66/148/5 63/147/5 59/145/5 60/146/5
f 65/150/5 66/149/5 60/132/5 58/133/5
f 68/154/2 67/153/2 43/151/2 44/152/2
f 67/156/5 69/155/5 47/98/5 43/90/5
f 69/160/7 70/159/7 48/157/7 47/158/7
f 70/162/4 68/161/4 44/91/4 48/99/4
f 72/166/4 71/165/4 68/163/4 70/164/4
f 73/168/7 72/167/7 70/159/7 69/160/7
f 74/170/5 73/169/5 69/155/5 67/156/5
f 76/172/4 75/171/4 71/165/4 72/166/4
f 77/176/7 76/175/7 72/173/7 73/174/7
f 75/180/2 78/179/2 74/177/2 71/178/2
f 78/182/5 77/181/5 73/169/5 74/170/5

