# ProBuilder 4.0.5
# https://unity3d.com/unity/features/worldbuilding/probuilder
# 30/05/2019 2:38:10 PM

mtllib ./office.mtl
o office

g office
v -1.066948 0 3.172325
v -4 0 3.172325
v -1.066948 6 3.172325
v -4 6 3.172325
v -4 0 -6
v -4 6 -6
v -1.066948 0 -6
v -1.066948 6 -6
v 8.326368 0 -6
v 8.326368 0 3.172325
v 8.326368 6 -6
v 8.326368 6 3.172325
v 2.032769 6 -6
v 2.032769 6 3.172325
v 2.032769 0 3.172325
v 2.032769 0 -6
v 5.317401 6 -6
v 5.317401 6 3.172325
v 5.317401 0 3.172325
v 5.317401 0 -6
v 8.111627 6 -6
v 8.111627 6 3.172325
v 8.111627 0 3.172325
v 8.111627 0 -6

vt 0.06694818 -3
vt 3 -3
vt 0.06694818 3
vt 3 3
vt -5.172325 -3
vt 4 -3
vt -5.172325 3
vt 4 3
vt -3 -3
vt -0.06694818 -3
vt -3 3
vt -0.06694818 3
vt -4 -3
vt 5.172325 -3
vt -4 3
vt 5.172325 3
vt -0.06694818 5.172325
vt -3 5.172325
vt -0.06694818 -4
vt -3 -4
vt 0.06694818 -4
vt 3 -4
vt 0.06694818 5.172325
vt 3 5.172325
vt 3.032769 -4
vt 3.032769 5.172325
vt -3.032769 5.172325
vt -3.032769 -4
vt 6.317401 -4
vt 6.317401 5.172325
vt -3.032769 3
vt -3.032769 -3
vt -6.317401 3
vt -6.317401 -3
vt -6.317401 5.172325
vt -6.317401 -4
vt 3.032769 -3
vt 3.032769 3
vt 6.317401 -3
vt 6.317401 3
vt 9.111627 -4
vt 9.111627 5.172325
vt -9.111627 5.172325
vt -9.111627 -4
vt 9.326368 -4
vt 9.326368 5.172325
vt -9.111627 3
vt -9.111627 -3
vt -9.326368 3
vt -9.326368 -3
vt -9.326368 5.172325
vt -9.326368 -4
vt 9.111627 -3
vt 9.111627 3
vt 9.326368 -3
vt 9.326368 3

vn 0 0 -1
vn 1 0 0
vn 0 0 1
vn -1 0 0
vn 0 -1 0
vn 0 1 0

g office_0
usemtl ProBuilderDefault
f 12/49/1 10/50/1 23/48/1 22/47/1
f 9/55/3 11/56/3 21/54/3 24/53/3

g office_1
usemtl TexturesCom_Carpet0047_1_seamless_S
f 7/21/6 5/22/6 2/24/6 1/23/6
f 15/27/6 16/28/6 7/21/6 1/23/6
f 19/35/6 20/36/6 16/28/6 15/27/6
f 23/43/6 24/44/6 20/36/6 19/35/6
f 10/51/6 9/52/6 24/44/6 23/43/6

g office_2
usemtl creem_walls
f 1/1/1 2/2/1 4/4/1 3/3/1
f 2/5/2 5/6/2 6/8/2 4/7/2
f 5/9/3 7/10/3 8/12/3 6/11/3
f 9/13/4 10/14/4 12/16/4 11/15/4
f 18/33/1 19/34/1 15/32/1 14/31/1
f 20/39/3 17/40/3 13/38/3 16/37/3

g office_3
usemtl concreat
f 3/17/5 4/18/5 6/20/5 8/19/5
f 13/25/5 14/26/5 3/17/5 8/19/5
f 17/29/5 18/30/5 14/26/5 13/25/5
f 21/41/5 22/42/5 18/30/5 17/29/5
f 11/45/5 12/46/5 22/42/5 21/41/5

